
<svg xmlns="http://www.w3.org/2000/svg" fill="none" viewBox="32.5 24 121 121">
    <g filter="url(#filter0_f_0_1)">
        <rect x="32.5" y="24" width="121" height="121" rx="60.5" fill="#E50914" fill-opacity="0.2"/>
    </g>
    <g filter="url(#filter1_d_0_1)">
        <mask id="path-2-inside-1_0_1" fill="white">
            <path d="M38 45.5C38 36.6634 45.1634 29.5 54 29.5H132C140.837 29.5 148 36.6634 148 45.5V123.5C148 132.337 140.837 139.5 132 139.5H54C45.1634 139.5 38 132.337 38 123.5V45.5Z"/>
        </mask>
        <path d="M38 45.5C38 36.6634 45.1634 29.5 54 29.5H132C140.837 29.5 148 36.6634 148 45.5V123.5C148 132.337 140.837 139.5 132 139.5H54C45.1634 139.5 38 132.337 38 123.5V45.5Z" fill="#121212"/>
        <path d="M54 29.5V30.5H132V29.5V28.5H54V29.5ZM148 45.5H147V123.5H148H149V45.5H148ZM132 139.5V138.5H54V139.5V140.5H132V139.5ZM38 123.5H39V45.5H38H37V123.5H38ZM54 139.5V138.5C45.7157 138.5 39 131.784 39 123.5H38H37C37 132.889 44.6112 140.5 54 140.5V139.5ZM148 123.5H147C147 131.784 140.284 138.5 132 138.5V139.5V140.5C141.389 140.5 149 132.889 149 123.5H148ZM132 29.5V30.5C140.284 30.5 147 37.2157 147 45.5H148H149C149 36.1112 141.389 28.5 132 28.5V29.5ZM54 29.5V28.5C44.6112 28.5 37 36.1112 37 45.5H38H39C39 37.2157 45.7157 30.5 54 30.5V29.5Z" fill="white" fill-opacity="0.05" mask="url(#path-2-inside-1_0_1)"/>
        <path d="M86.75 82L84.375 87.125L79.25 89.5L84.375 91.875L86.75 97L89.125 91.875L94.25 89.5L89.125 87.125L86.75 82ZM101.75 82L100.125 85.375L96.75 87L100.125 88.625L101.75 92L103.375 88.625L106.75 87L103.375 85.375L101.75 82ZM73 64.5L78 74.5H85.5L80.5 64.5H85.5L90.5 74.5H98L93 64.5H98L103 74.5H110.5L105.5 64.5H113C114.375 64.5 115.552 64.9896 116.531 65.9688C117.51 66.9479 118 68.125 118 69.5V99.5C118 100.875 117.51 102.052 116.531 103.031C115.552 104.01 114.375 104.5 113 104.5H73C71.625 104.5 70.4479 104.01 69.4688 103.031C68.4896 102.052 68 100.875 68 99.5V69.5C68 68.125 68.4896 66.9479 69.4688 65.9688C70.4479 64.9896 71.625 64.5 73 64.5ZM73 79.5V99.5H113V79.5H73Z" fill="#E50914"/>
    </g>
    <defs>
        <filter id="filter0_f_0_1" x="8.5" y="0" width="169" height="169" filterUnits="userSpaceOnUse" color-interpolation-filters="sRGB">
            <feFlood flood-opacity="0" result="BackgroundImageFix"/>
            <feBlend mode="normal" in="SourceGraphic" in2="BackgroundImageFix" result="shape"/>
            <feGaussianBlur stdDeviation="12" result="effect1_foregroundBlur_0_1"/>
        </filter>
    </defs>
</svg>