<svg width="263" height="68" viewBox="0 0 263 68" fill="none" xmlns="http://www.w3.org/2000/svg">
    <g filter="url(#filter0_d_6_136)">
        <path d="M20 46.694V20.522H35.282L35.318 25.688H22.232L25.706 22.268V33.644L22.214 31.43H34.364V36.614H23.492L25.706 34.688V46.694H20ZM42.6195 46.694V20.522H48.3795V44.93L44.8155 41.42H57.7935V46.694H42.6195ZM64.2341 46.694V20.522H70.0121V46.694H64.2341ZM89.5787 47.072C87.0467 47.072 84.8867 46.532 83.0987 45.452C81.3107 44.36 79.9427 42.8 78.9947 40.772C78.0467 38.732 77.5727 36.302 77.5727 33.482C77.5727 30.722 78.0347 28.34 78.9587 26.336C79.8827 24.32 81.2387 22.766 83.0267 21.674C84.8267 20.582 87.0287 20.036 89.6327 20.036C91.5167 20.036 93.2147 20.396 94.7267 21.116C96.2507 21.836 97.4567 22.892 98.3447 24.284C99.2327 25.664 99.6707 27.356 99.6587 29.36H93.8087C93.7967 28.412 93.5867 27.65 93.1787 27.074C92.7707 26.498 92.2187 26.084 91.5227 25.832C90.8387 25.568 90.0647 25.436 89.2007 25.436C88.0247 25.436 87.0047 25.724 86.1407 26.3C85.2767 26.876 84.6047 27.77 84.1247 28.982C83.6567 30.182 83.4227 31.724 83.4227 33.608C83.4227 35.444 83.6627 36.962 84.1427 38.162C84.6347 39.35 85.3127 40.232 86.1767 40.808C87.0527 41.384 88.0667 41.672 89.2187 41.672C90.2027 41.672 91.0367 41.54 91.7207 41.276C92.4047 41 92.9267 40.61 93.2867 40.106C93.6587 39.59 93.8447 38.966 93.8447 38.234H99.7127C99.7247 40.034 99.2807 41.6 98.3807 42.932C97.4807 44.252 96.2627 45.272 94.7267 45.992C93.1907 46.712 91.4747 47.072 89.5787 47.072ZM111.793 40.16L111.217 35.174L114.403 29.63L120.865 20.522H127.561L118.615 32.744L116.329 34.472L111.793 40.16ZM106.681 46.694V20.522H112.405V46.694H106.681ZM121.621 46.694L113.989 33.446L118.309 30.134L128.443 46.694H121.621ZM134.539 46.694V20.522H141.847L149.389 36.074L151.387 41.546H151.513L150.757 34.832V20.522H156.319V46.694H148.957L141.451 31.142L139.561 26.156H139.381L140.101 33.932V46.694H134.539ZM175.657 47.234C173.473 47.234 171.487 46.706 169.699 45.65C167.911 44.594 166.489 43.04 165.433 40.988C164.377 38.936 163.849 36.422 163.849 33.446C163.849 30.566 164.353 28.124 165.361 26.12C166.381 24.116 167.779 22.598 169.555 21.566C171.331 20.522 173.371 20 175.675 20C177.931 20 179.947 20.522 181.723 21.566C183.511 22.598 184.921 24.116 185.953 26.12C186.997 28.124 187.519 30.566 187.519 33.446C187.519 36.422 187.003 38.936 185.971 40.988C184.939 43.04 183.529 44.594 181.741 45.65C179.965 46.706 177.937 47.234 175.657 47.234ZM175.657 41.996C176.857 41.996 177.907 41.69 178.807 41.078C179.707 40.466 180.409 39.536 180.913 38.288C181.429 37.028 181.687 35.432 181.687 33.5C181.687 31.676 181.435 30.152 180.931 28.928C180.427 27.704 179.719 26.786 178.807 26.174C177.907 25.55 176.863 25.238 175.675 25.238C174.547 25.238 173.527 25.55 172.615 26.174C171.715 26.786 171.001 27.704 170.473 28.928C169.957 30.152 169.699 31.676 169.699 33.5C169.699 34.952 169.849 36.212 170.149 37.28C170.449 38.348 170.869 39.23 171.409 39.926C171.949 40.622 172.579 41.144 173.299 41.492C174.031 41.828 174.817 41.996 175.657 41.996ZM200.125 46.694L192.493 20.522H198.739L202.555 35.786L203.923 41.87H204.049L205.381 35.786L209.215 20.522H215.461L207.829 46.694H200.125ZM217.936 46.694L225.802 20.522H234.568L242.434 46.694H236.368L234.01 38.234L237.178 40.61H224.272L224.596 36.074H235.918L233.992 38.162L231.616 29.648L230.302 24.302H230.014L228.718 29.648L224.002 46.694H217.936Z" fill="white"/>
    </g>
    <defs>
        <filter id="filter0_d_6_136" x="0" y="0" width="262.434" height="67.234" filterUnits="userSpaceOnUse" color-interpolation-filters="sRGB">
            <feFlood flood-opacity="0" result="BackgroundImageFix"/>
            <feColorMatrix in="SourceAlpha" type="matrix" values="0 0 0 0 0 0 0 0 0 0 0 0 0 0 0 0 0 0 127 0" result="hardAlpha"/>
            <feOffset/>
            <feGaussianBlur stdDeviation="10"/>
            <feComposite in2="hardAlpha" operator="out"/>
            <feColorMatrix type="matrix" values="0 0 0 0 0.898039 0 0 0 0 0.0352941 0 0 0 0 0.0784314 0 0 0 0.5 0"/>
            <feBlend mode="normal" in2="BackgroundImageFix" result="effect1_dropShadow_6_136"/>
            <feBlend mode="normal" in="SourceGraphic" in2="effect1_dropShadow_6_136" result="shape"/>
        </filter>
    </defs>
</svg>
