<svg width="25" height="32" viewBox="0 0 25 32" fill="none" xmlns="http://www.w3.org/2000/svg">
    <path d="M9.5755 15.0224L8.65227 17.0146L6.66004 17.9378L8.65227 18.861L9.5755 20.8533L10.4987 18.861L12.4909 17.9378L10.4987 17.0146L9.5755 15.0224ZM15.4064 15.0224L14.7747 16.3343L13.4628 16.966L14.7747 17.5977L15.4064 18.9096L16.0381 17.5977L17.35 16.966L16.0381 16.3343L15.4064 15.0224ZM4.2305 8.21963L6.17414 12.1069H9.08959L7.14595 8.21963H9.08959L11.0332 12.1069H13.9487L12.005 8.21963H13.9487L15.8923 12.1069H18.8078L16.8641 8.21963H19.7796C20.3141 8.21963 20.7716 8.40995 21.1523 8.79058C21.5329 9.1712 21.7232 9.62877 21.7232 10.1633V21.8251C21.7232 22.3596 21.5329 22.8171 21.1523 23.1978C20.7716 23.5784 20.3141 23.7687 19.7796 23.7687H4.2305C3.696 23.7687 3.23844 23.5784 2.85781 23.1978C2.47718 22.8171 2.28687 22.3596 2.28687 21.8251V10.1633C2.28687 9.62877 2.47718 9.1712 2.85781 8.79058C3.23844 8.40995 3.696 8.21963 4.2305 8.21963ZM4.2305 14.0505V21.8251H19.7796V14.0505H4.2305Z" fill="#EA4335"/>
</svg>
