<svg width="24" height="24" viewBox="0 0 24 24" fill="none" xmlns="http://www.w3.org/2000/svg">
    <path d="M17.05 20.28C16.07 21.23 15 21.16 13.97 20.75C12.88 20.33 11.88 20.27 10.73 20.75C9.29002 21.37 8.53003 21.19 7.67003 20.28C2.70003 15.25 3.66003 7.79002 9.07002 7.50002C10.53 7.58002 11.6 8.47002 12.41 8.47002C13.18 8.47002 14.63 7.39002 16.18 7.55002C17.46 7.69002 18.43 8.19002 19.04 9.10002C16.52 10.62 16.93 15.02 19.46 16.12C18.93 17.6 18.21 19.07 17.05 20.28ZM13.53 4.98002C14.2 4.16002 14.66 3.03002 14.51 1.90002C13.43 1.96002 12.14 2.64002 11.53 3.36002C10.96 4.01002 10.46 5.06002 10.6 6.12002C11.79 6.21002 12.9 5.78002 13.53 4.98002Z" fill="white"/>
</svg>
